<?xml version="1.0" encoding="utf-8"?>
<!-- Generator: Adobe Illustrator 22.1.0, SVG Export Plug-In . SVG Version: 6.00 Build 0)  -->
<svg version="1.1" id="レイヤー_1" xmlns="http://www.w3.org/2000/svg" xmlns:xlink="http://www.w3.org/1999/xlink" x="0px"
	 y="0px" viewBox="0 0 300 300" style="enable-background:new 0 0 300 300;" xml:space="preserve">
<style type="text/css">
	.st0{fill:#68AADE;}
</style>
<path class="st0" d="M300,57c-11,4.9-22.9,8.2-35.4,9.7c12.7-7.6,22.5-19.7,27.1-34.1c-11.9,7.1-25.1,12.2-39.1,14.9
	c-11.2-12-27.2-19.4-44.9-19.4c-34,0-61.6,27.6-61.6,61.5c0,4.8,0.5,9.5,1.6,14c-51.2-2.6-96.5-27.1-126.9-64.3
	c-5.3,9.1-8.3,19.7-8.3,30.9c0,21.4,10.9,40.2,27.4,51.2c-10.1-0.3-19.6-3.1-27.9-7.7c0,0.3,0,0.5,0,0.8c0,29.8,21.2,54.7,49.4,60.4
	c-5.2,1.4-10.6,2.2-16.2,2.2c-4,0-7.8-0.4-11.6-1.1c7.8,24.5,30.6,42.2,57.5,42.7c-21.1,16.5-47.6,26.3-76.4,26.3
	c-5,0-9.9-0.3-14.7-0.9c27.2,17.5,59.6,27.7,94.3,27.7c113.2,0,175.1-93.8,175.1-175.1c0-2.7-0.1-5.3-0.2-8
	C281.3,80.1,291.7,69.3,300,57z"/>
</svg>
